<svg xmlns="http://www.w3.org/2000/svg" aria-hidden="true" style="position:absolute;width:0;height:0;overflow:hidden">
  <defs>
    <symbol id="burger-close" viewBox="0 0 32 32">
      <path d="m21.589 8.459-5.657 5.656-5.656-5.656-1.885 1.885L14.047 16l-5.656 5.656 1.885 1.885 5.656-5.656 5.657 5.656 1.885-1.885L17.818 16l5.656-5.656-1.885-1.885z"/>
    </symbol>
    <symbol id="burger-menu" viewBox="0 0 32 32">
      <path d="M5.333 8h21.333v2.667H5.333V8zm0 6.667h21.333v2.667H5.333v-2.667zm0 6.666h21.333V24H5.333v-2.667z"/>
    </symbol>
    <symbol id="logo" viewBox="0 0 109 32">
      <path d="M19.1.789c.483.24 1.025.928 1.389 1.335 3.125 3.491 4.764 7.937 4.474 12.617-.281 4.529-2.517 8.55-5.875 11.523-.636-.435-1.217-1.053-1.726-1.628-2.852-3.225-4.415-7.757-4.143-12.056.281-4.433 2.547-8.868 5.88-11.79z"/>
      <path d="M32.398 7.128c.009.016.02.031.028.047.178.362.229.937.274 1.339.235 2.09.041 4.186-.695 6.165-1.837 4.945-6.082 8.585-10.777 10.742-.055-.001-.018.004-.103-.045.287-.469.687-.889 1.018-1.33.506-.688.965-1.41 1.373-2.16 1.438-2.646 2.126-5.556 2.123-8.557-.001-.852-.02-1.704-.267-2.526.44-.489.98-.9 1.503-1.297 1.687-1.277 3.388-2.166 5.521-2.379zm-26.657.02c.253.01.509.043.759.081 1.928.293 3.615 1.32 5.122 2.509.42.332.88.678 1.197 1.113-.801 4.115.261 8.429 2.389 11.988.34.566.707 1.114 1.1 1.645.188.253.411.482.579.747l-.06.077c-3.508-1.5-6.795-4.155-8.909-7.328C5.7 14.651 4.967 11.065 5.74 7.149z"/>
      <path d="M35.83 16.331c.559-.067 1.813-.137 2.282.161.024.07.031.077.033.163.009.328-.205.82-.316 1.126a13.085 13.085 0 0 1-3.699 5.478c-3.292 2.911-7.559 3.955-11.868 3.678-.814-.085-1.653-.142-2.435-.391 3.61-1.11 7.045-3.379 9.533-6.212.612-.697 1.06-1.505 1.655-2.206 1.13-1.33 3.178-1.681 4.815-1.797zm-34.489.11c1.682-.198 3.965.079 5.351 1.126.824.623 1.32 1.779 2.001 2.567a21.285 21.285 0 0 0 7.795 5.683c.639.273 1.296.559 1.971.725l-1.35.226c-3.931.566-8.004-.137-11.367-2.323-2.29-1.49-3.903-3.532-4.851-6.08-.139-.374-.348-.779-.419-1.168-.042-.227-.005-.377.128-.57.211-.156.486-.154.74-.185zm68.648-3.397c1.31-.011 2.74-.128 4.033.061.832.121 1.678.42 2.185 1.133.372.525.493 1.262.378 1.89-.141.768-.628 1.213-1.244 1.627.148.062.293.131.435.206.545.295.931.805 1.09 1.401.218.814.044 1.654-.362 2.376-.091.138-.199.26-.319.374-1.243 1.18-3.97.952-5.577.937-.309-.003-.716.025-.946-.21a.758.758 0 0 1-.086-.328c-.106-1.726-.01-3.517-.01-5.248-.001-1.226-.123-2.822.037-4.008.123-.155.201-.154.387-.211zm4.388 6.069c-.694-.453-1.862-.322-2.668-.321l.004 2.236c.892.006 1.935.143 2.726-.335.186-.275.373-.683.319-1.025-.039-.249-.175-.42-.382-.555zm-.331-3.977c-.662-.398-1.591-.298-2.335-.294v2.147c.799.006 1.751.124 2.449-.327.188-.269.369-.655.298-.994-.052-.249-.2-.405-.412-.532zm-16.272.232c.2-.017.401-.006.598.032.599.12.892.561 1.213 1.031.018-.164.03-.342.068-.503a.505.505 0 0 1 .281-.35c.242-.129.763-.138 1.016-.044.185.069.391.23.455.423.188.573.115 6.176.006 6.943a4.048 4.048 0 0 1-.484 1.446c-.411.714-1.11 1.181-1.895 1.394-1.107.299-2.367.204-3.355-.391-.441-.265-.647-.608-.763-1.099.037-.178.081-.351.234-.466.495-.374 1.565.254 2.114.356.473.088.983.04 1.376-.258.648-.489.755-1.392.866-2.137-.434.463-.845.837-1.485.993a2.613 2.613 0 0 1-2.049-.342c-.785-.52-1.224-1.413-1.385-2.319-.196-1.104-.025-2.425.644-3.349.638-.88 1.516-1.204 2.546-1.362zm.118 1.689c-.516.195-.802.434-1.023.948-.273.632-.281 1.549-.014 2.184.141.334.422.686.778.806.234.079.517.044.758.027.425-.152.668-.33.869-.742.31-.634.319-1.529.082-2.191-.137-.385-.408-.763-.794-.929a1.532 1.532 0 0 0-.657-.102zm42.766-1.629c.507-.067 1.007-.044 1.486.154.661.274 1.005.773 1.266 1.41.134-.336.282-.675.52-.954.375-.442.867-.617 1.437-.639.656-.025 1.328.125 1.808.596.316.31.51.725.616 1.15.282 1.133.124 3.566.128 4.845.001.196.025.815-.128.931-.261.197-1.184.153-1.509.107-.19-.026-.306-.128-.385-.3-.12-.265-.056-.737-.052-1.03.013-.949.246-3.573-.315-4.265a.73.73 0 0 0-.518-.273c-.303-.021-.688.083-.907.299-.779.763-.521 3.475-.514 4.541.002.215.009.451-.017.665-.012.094-.045.204-.131.253-.332.19-1.139.162-1.505.076-.191-.045-.272-.109-.34-.294-.112-.307-.049-.761-.045-1.085.017-.951.242-3.316-.24-4.029a.9.9 0 0 0-.617-.386c-.289-.047-.59-.009-.825.177-.946.747-.688 3.365-.684 4.447.001.26.054.632-.006.875-.025.101-.054.163-.142.22-.305.2-1.13.157-1.493.085-.153-.03-.25-.124-.317-.263-.093-.197-.12-5.887-.086-6.451.01-.157.043-.324.114-.466a.724.724 0 0 1 .437-.361c.451-.145 1.012.016 1.411.237.095.356.027.821.012 1.192.047-.094.094-.189.143-.282.351-.679.682-.956 1.398-1.184zm-8.187.029a3.83 3.83 0 1 1 .158 7.656 3.83 3.83 0 0 1-.158-7.655zm.436 1.696c-.223-.066-.465-.051-.693-.03-.563.25-.869.537-1.087 1.125-.261.704-.218 1.686.116 2.357.18.361.459.655.847.785.266.089.516.104.789.04.54-.226.862-.514 1.083-1.067.278-.693.276-1.621-.044-2.3-.2-.425-.555-.774-1.011-.909zm-42.864-1.685a3.826 3.826 0 1 1 .346 7.644 3.826 3.826 0 0 1-.346-7.644zm.595 1.704c-.244-.084-.496-.082-.749-.05-.565.279-.888.57-1.103 1.188-.244.699-.208 1.698.144 2.354.192.358.482.62.874.74.24.074.513.08.758.022.538-.224.854-.513 1.07-1.065.275-.7.252-1.625-.065-2.309-.186-.402-.504-.733-.928-.879zm33.257-1.663a3.826 3.826 0 0 1 4.166 5.185 3.824 3.824 0 1 1-4.166-5.185zm.311 1.609c-.567.241-.893.515-1.122 1.101-.269.688-.242 1.642.076 2.311.192.404.519.736.951.873.216.069.461.068.684.041.566-.239.895-.506 1.13-1.094.272-.683.267-1.625-.049-2.292-.188-.396-.509-.73-.928-.879-.237-.084-.493-.082-.741-.062zM64.78 15.431c.479-.057.94-.048 1.412.061.716.166 1.317.583 1.682 1.225.195.344.309.721.363 1.112.084.603.131 4.421-.007 4.946-.115.147-.231.201-.41.24-.306.065-.977.103-1.224-.126-.216-.2-.173-.617-.175-.885-.359.53-.721.957-1.373 1.12-.728.181-1.404-.031-2.031-.393-.268-.247-.472-.5-.587-.85-.194-.59-.131-1.386.171-1.929.733-1.318 2.459-1.238 3.721-1.61l.079-.025c-.051-.158-.101-.319-.167-.472-.714-1.647-2.495.153-3.356-.3a.715.715 0 0 1-.343-.464c-.059-.25.008-.413.145-.62.462-.705 1.329-.883 2.101-1.03zm1.534 4.399c-.525.144-1.509.303-1.822.779a.587.587 0 0 0-.044.53c.047.121.138.226.219.326.542.037.882-.003 1.296-.38.251-.229.483-.597.471-.952-.003-.088-.028-.178-.048-.263l-.071-.041zm-22.938-2.981c.188-.597 1.65-3.454 2.116-3.722.242-.139 1.534-.161 1.794-.042.167.076.185.121.26.277-.133.74-1.767 3.222-2.251 4.032l-.849 1.412c.003.849.153 3.44-.143 4.055a.73.73 0 0 1-.307.154c-.399.093-1.192.066-1.544-.156-.272-.358-.13-3.333-.129-3.991-.434-.694-3.236-5.168-3.162-5.595.093-.133.152-.166.302-.225.473-.014 1.434-.139 1.825.098.507.308 1.901 3.076 2.089 3.705zm34.699-3.805c.496-.013 1.307-.137 1.735.119.12.816.073 1.681.075 2.504l.005 3.814c0 .996.11 2.194-.019 3.172-.025.195-.145.258-.287.37-.516.017-1.311.145-1.736-.191-.1-.382-.163-9.187-.067-9.534.046-.165.154-.184.293-.254zM19.303 26.808a11.89 11.89 0 0 0 2.089.554c1.236.2 2.672.142 3.782.785.82.476 1.66 1.589 1.891 2.512.042.169.03.183-.057.324-.858.309-1.692.236-2.546-.044-2.057-.673-4.154-2.172-5.16-4.132zm-.387.005c.043-.004.085.019.127.031-.002.02-.002.04-.006.059-.106.438-1.799 2.223-2.19 2.532-1.351 1.067-3.357 1.914-5.101 1.706-.047-.01-.111-.023-.154-.042-.094-.043-.153-.078-.178-.18-.066-.273.089-.589.213-.826.399-.763 1.025-1.659 1.808-2.072.966-.508 2.391-.506 3.465-.697.688-.122 1.35-.309 2.017-.512z"/>
    </symbol>
    <symbol id="linkedIn" viewBox="0 0 33 32">
      <path d="M6.667 4.324h20a2 2 0 0 1 2 2v20a2 2 0 0 1-2 2h-20a2 2 0 0 1-2-2v-20a2 2 0 0 1 2-2zm5.361 5.337c.008-1.117-.844-1.978-2.018-2.004-1.157-.026-2.047.879-2.053 2.006-.006 1.198.924 2.047 1.991 2.053 1.133.006 2.087-.78 2.079-2.055zm5.012 3.678h-3.362v11.413h3.551v-.266l-.001-1.52c-.001-1.352-.002-2.705.005-4.056.002-.328.017-.669.101-.983.317-1.17 1.369-1.926 2.543-1.74.754.118 1.252.555 1.462 1.266.129.444.188.922.193 1.386.015 1.397.013 2.794.011 4.191l-.002 1.479v.242h3.563v-.274l-.001-1.808c-.001-1.506-.001-3.012.003-4.519a8.04 8.04 0 0 0-.238-2.01c-.249-.979-.765-1.789-1.603-2.374-.594-.416-1.247-.684-1.976-.714-.083-.003-.167-.008-.251-.013-.373-.02-.752-.041-1.109.031-1.02.204-1.916.671-2.593 1.494-.079.094-.156.19-.27.333l-.026.032v-1.592zM8.242 24.756h3.534V13.347H8.242v11.409z"/>
    </symbol>
    <symbol id="instagram" viewBox="0 0 33 32">
      <path d="M22 4.324H11.333a6.667 6.667 0 0 0-6.667 6.667v10.667a6.667 6.667 0 0 0 6.667 6.667H22a6.667 6.667 0 0 0 6.667-6.667V10.991A6.667 6.667 0 0 0 22 4.324zm4.333 17.333A4.346 4.346 0 0 1 22 25.99H11.333A4.346 4.346 0 0 1 7 21.657V10.99a4.346 4.346 0 0 1 4.333-4.333H22a4.346 4.346 0 0 1 4.333 4.333v10.667zM23 11.324a1.333 1.333 0 1 1 0-2.667 1.333 1.333 0 0 1 0 2.667zm-6.333-1a5.986 5.986 0 0 1 6 6 6 6 0 1 1-6-6zm-3.667 6a3.667 3.667 0 1 0 7.335 0 3.667 3.667 0 0 0-7.335 0z"/>
    </symbol>
    <symbol id="facebook" viewBox="0 0 33 32">
      <path d="M30 16.405C30 8.996 24.031 2.99 16.667 2.99S3.334 8.996 3.334 16.405c0 6.696 4.876 12.245 11.25 13.252v-9.374h-3.385v-3.878h3.385V13.45c0-3.362 1.991-5.219 5.036-5.219 1.459 0 2.985.262 2.985.262v3.301h-1.681c-1.656 0-2.173 1.034-2.173 2.095v2.516h3.698l-.591 3.878h-3.107v9.374c6.374-1.006 11.25-6.556 11.25-13.252z"/>
    </symbol>
    <symbol id="modal-close" viewBox="0 0 32 32">
      <path d="m22.835 22.364-.471.471a.668.668 0 0 1-.943 0L16 17.414l-5.421 5.421a.668.668 0 0 1-.943 0l-.471-.471a.668.668 0 0 1 0-.943L14.586 16l-5.421-5.421a.668.668 0 0 1 0-.943l.471-.471c.26-.26.682-.26.943 0L16 14.586l5.421-5.421c.26-.26.683-.26.943 0l.471.471c.26.26.26.682 0 .943L17.414 16l5.421 5.421c.26.26.26.683 0 .943z"/>
    </symbol>
    <symbol id="youtube" viewBox="0 0 31 32">
      <path d="M27.639 9.86a3.199 3.199 0 0 0-2.255-2.261C23.38 7.049 15.36 7.04 15.36 7.04s-8.018-.009-10.024.517a3.272 3.272 0 0 0-2.261 2.275c-.529 2.004-.534 6.162-.534 6.162s-.005 4.178.52 6.162a3.204 3.204 0 0 0 2.257 2.259c2.025.55 10.022.559 10.022.559s8.019.009 10.024-.516a3.221 3.221 0 0 0 2.262-2.257c.53-2.003.534-6.159.534-6.159s.026-4.179-.521-6.184zm-14.844 9.986.006-7.68 6.665 3.846-6.671 3.834z"/>
    </symbol>
    <symbol id="check" viewBox="0 0 31 32">
      <path d="M26.045 10.322 12.477 23.89a.64.64 0 0 1-.908 0L4.67 16.991a.64.64 0 0 1 0-.908l.896-.896a.64.64 0 0 1 .908 0l5.542 5.542L24.24 8.505a.654.654 0 0 1 .909 0l.896.909a.64.64 0 0 1 0 .908z"/>
    </symbol>
  </defs>
</svg>
